<?xml version="1.0" encoding="UTF-8"?> <svg xmlns="http://www.w3.org/2000/svg" width="31" height="32" viewBox="0 0 31 32" fill="none"><path d="M17.2112 8.91393V21.8341H22.7664C21.3776 23.4867 19.3936 24.6385 17.2112 24.939V31.9499C20.0384 31.6995 22.7168 30.748 25.048 29.0955C27.3296 27.493 29.1152 25.2895 30.3056 22.7856C30.504 22.3349 30.7024 21.8341 30.9008 21.3333C31 21.0829 31 20.7825 31 20.5321V8.91393H17.2112Z" fill="#1C50DE"></path><path d="M14.5824 0C10.6144 0.350548 6.944 2.15336 4.216 5.10798C1.488 8.0626 0 11.9186 0 15.975C0 20.0313 1.488 23.9374 4.216 26.892C6.944 29.8466 10.6144 31.6495 14.5328 32V0H14.5824Z" fill="#1C50DE"></path></svg> 