<?xml version="1.0" encoding="UTF-8"?>
<svg xmlns="http://www.w3.org/2000/svg" width="160" height="32" viewBox="0 0 100 20" fill="none">
  <path d="M24.5835 8.54492H26.6979V16.5887H24.5835V8.54492Z" fill="#ffffff"/>
  <path d="M30.7689 16.9335C29.7906 16.9335 28.9702 16.6518 28.3705 16.3701C28.0234 16.2136 27.7078 16.0258 27.4238 15.8067L28.2443 14.367C28.4652 14.5235 28.6861 14.6487 28.9702 14.7739C29.4435 14.993 30.0431 15.1808 30.7689 15.1808C32.2522 15.1808 32.7255 14.68 32.7255 14.2105C32.7255 12.9898 27.8656 13.8036 27.8656 10.9241C27.8656 9.57824 29.1911 8.26367 31.5264 8.26367C32.5046 8.26367 33.2936 8.5141 33.8616 8.76448C34.1772 8.92096 34.4612 9.10877 34.7137 9.29653L33.8932 10.7363C33.7038 10.5798 33.4829 10.4859 33.2304 10.3607C32.7886 10.1729 32.2522 10.0164 31.5579 10.0164C30.5165 10.0164 30.1062 10.392 30.1062 10.8928C30.1062 12.1134 34.9661 11.2997 34.9661 14.1792C34.903 15.5563 33.5145 16.9335 30.7689 16.9335Z" fill="#ffffff"/>
  <path d="M40.552 16.1184C40.2995 16.3062 40.0155 16.4627 39.6999 16.5566C39.3843 16.6505 39.0056 16.713 38.6269 16.713C37.6802 16.713 36.9543 16.4627 36.4179 15.9619C35.913 15.4611 35.6289 14.7412 35.6289 13.8022V6.10271L37.6486 5.35156V8.04323H39.9839V9.63951H37.6486V13.7709C37.6486 14.1778 37.7433 14.5221 37.9642 14.7412C38.1851 14.9603 38.4691 15.0855 38.8478 15.0855C39.2896 15.0855 39.6683 14.9603 39.9839 14.7412L40.552 16.1184Z" fill="#ffffff"/>
  <path d="M45.1593 8.23242C47.7786 8.23242 49.7038 10.1729 49.7038 12.583C49.7038 14.993 47.7786 16.9335 45.1593 16.9335C42.5716 16.9335 40.615 14.993 40.615 12.583C40.615 10.1729 42.5716 8.23242 45.1593 8.23242ZM45.1593 9.98518C43.8655 9.98518 42.7925 11.018 42.7925 12.5517C42.7925 14.0853 43.8339 15.1182 45.1593 15.1182C46.4848 15.1182 47.5262 14.0853 47.5262 12.5517C47.5262 11.018 46.4532 9.98518 45.1593 9.98518Z" fill="#ffffff"/>
  <path d="M61.4749 14.6787V16.5879H59.3606V5.32031H61.4749V11.987H61.5696L64.9777 8.51284H67.4077L64.1573 11.7992L67.7863 16.5879H65.3563L62.832 13.3016L61.4749 14.6787Z" fill="#ffffff"/>
  <path d="M26.6979 6.79242L24.5835 7.5749V5.41528L26.6979 4.63281V6.79242Z" fill="#ffffff"/>
  <path d="M73.9712 8.54492H76.086V16.5887H73.9712V8.54492Z" fill="#ffffff"/>
  <path d="M76.086 6.79242L73.9712 7.5749V5.41528L76.086 4.63281V6.79242Z" fill="#ffffff"/>
  <path d="M58.2871 15.9633C58.0347 16.1511 57.7823 16.3076 57.4666 16.4641C56.899 16.7145 56.2047 16.9648 55.2575 16.9648C52.3861 16.9648 50.4294 15.0243 50.4294 12.583C50.4294 10.1417 52.3861 8.20117 55.2575 8.20117C56.1413 8.20117 56.8671 8.42027 57.4037 8.63936C57.6875 8.79584 57.9718 8.92103 58.1928 9.10884L57.3723 10.5799C57.2142 10.4547 57.0252 10.3608 56.8356 10.2982C56.4571 10.1417 56.0152 10.0165 55.4156 10.0165C53.8375 10.0165 52.6385 11.2372 52.6385 12.6143C52.6385 13.9915 53.8375 15.2121 55.4156 15.2121C56.0466 15.2121 56.5518 15.0556 56.899 14.8991C57.1194 14.8052 57.2775 14.68 57.4666 14.5861L58.2871 15.9633Z" fill="#ffffff"/>
  <path d="M72.2044 16.6506H70.0901V6.97929H68.8591V5.25781H72.2044V16.6506Z" fill="#ffffff"/>
  <path d="M89.3086 14.71V16.6505H87.1943V5.28906H89.3086V12.0183H89.4034L92.8434 8.51282H95.3048L92.0229 11.8305L95.7153 16.6193H93.2534L90.7291 13.3016L89.3086 14.71Z" fill="#ffffff"/>
  <path d="M84.8905 9.48387C85.5219 10.1098 85.8691 11.0175 85.8691 12.2382V16.6826H83.7229V12.4573C83.7229 11.7374 83.5019 10.3289 81.7034 10.3289C80.0624 10.3289 79.6839 11.6435 79.6839 12.7703V16.6513H77.5691V8.57621H79.4629V9.73425C79.7781 9.35868 80.1886 9.04568 80.6934 8.85787C81.1986 8.67011 81.7348 8.54492 82.3662 8.54492C83.4077 8.54492 84.2596 8.85787 84.8905 9.48387Z" fill="#ffffff"/>
  <path d="M10.9507 5.57031V13.6455H14.4852C13.6015 14.6783 12.3393 15.3982 10.9507 15.586V19.9678C12.7495 19.8113 14.4536 19.2166 15.9368 18.1838C17.3885 17.1822 18.5246 15.8051 19.282 14.2401C19.4082 13.9585 19.5344 13.6455 19.6607 13.3325C19.7238 13.176 19.7238 12.9882 19.7238 12.8317V5.57031H10.9507Z" fill="#ffffff"/>
  <path d="M9.278 0C6.75338 0.219092 4.4181 1.34585 2.68242 3.19249C0.946738 5.03914 0 7.44914 0 9.98433C0 12.5196 0.946738 14.9609 2.68242 16.8075C4.4181 18.6541 6.75338 19.7809 9.24648 20V0H9.278Z" fill="#ffffff"/>
</svg>
