<svg xmlns="http://www.w3.org/2000/svg" width="960" height="600" viewBox="0 0 960 600" fill="none">
  <rect width="960" height="600" fill="#f4f7ff"/>
  <rect x="280" y="48" width="400" height="504" rx="16" fill="#fff" stroke="#e2e8f0"/>
  <text x="480" y="100" text-anchor="middle" font-family="Arial,sans-serif" font-size="22" font-weight="700" fill="#0f172a">??????????? ? iStockLink</text>
  <text x="320" y="148" font-family="Arial,sans-serif" font-size="12" font-weight="600" fill="#64748b">Email</text>
  <rect x="320" y="156" width="320" height="40" rx="8" fill="#f8fafc" stroke="#e2e8f0"/>
  <text x="332" y="181" font-family="Arial,sans-serif" font-size="13" fill="#94a3b8">name@company.ru</text>
  <text x="320" y="220" font-family="Arial,sans-serif" font-size="12" font-weight="600" fill="#64748b">??????</text>
  <rect x="320" y="228" width="320" height="40" rx="8" fill="#f8fafc" stroke="#e2e8f0"/>
  <text x="320" y="292" font-family="Arial,sans-serif" font-size="12" font-weight="600" fill="#64748b">????????</text>
  <rect x="320" y="300" width="320" height="40" rx="8" fill="#f8fafc" stroke="#e2e8f0"/>
  <text x="320" y="364" font-family="Arial,sans-serif" font-size="12" font-weight="600" fill="#64748b">????</text>
  <rect x="320" y="372" width="320" height="40" rx="8" fill="#eef3ff" stroke="#1c50de" stroke-width="2"/>
  <text x="332" y="397" font-family="Arial,sans-serif" font-size="13" font-weight="700" fill="#1c50de">??????????</text>
  <polygon points="620,392 630,397 620,402" fill="#1c50de"/>
  <rect x="320" y="436" width="320" height="44" rx="10" fill="#1c50de"/>
  <text x="480" y="463" text-anchor="middle" font-family="Arial,sans-serif" font-size="14" font-weight="700" fill="#fff">??????????????????</text>
  <rect x="700" y="368" width="200" height="52" rx="8" fill="#fef3c7" stroke="#f59e0b"/>
  <text x="710" y="390" font-family="Arial,sans-serif" font-size="11" font-weight="700" fill="#b45309">???????? ????</text>
  <text x="710" y="408" font-family="Arial,sans-serif" font-size="11" fill="#92400e">??????????</text>
</svg>
