<svg xmlns="http://www.w3.org/2000/svg" width="960" height="600" viewBox="0 0 960 600" fill="none">
  <rect width="960" height="600" fill="#f8fafc"/>
  <rect x="0" y="0" width="200" height="600" fill="#fff" stroke="#e2e8f0"/>
  <text x="24" y="40" font-family="Arial,sans-serif" font-size="16" font-weight="800" fill="#1c50de">iStockLink</text>
  <rect x="16" y="68" width="168" height="32" rx="8" fill="#eef3ff"/>
  <text x="28" y="88" font-family="Arial,sans-serif" font-size="12" font-weight="700" fill="#1c50de">????? ???????</text>
  <text x="28" y="128" font-family="Arial,sans-serif" font-size="12" fill="#64748b">???????</text>
  <text x="28" y="156" font-family="Arial,sans-serif" font-size="12" fill="#64748b">??????????</text>
  <text x="28" y="184" font-family="Arial,sans-serif" font-size="12" fill="#64748b">?????????</text>
  <text x="224" y="48" font-family="Arial,sans-serif" font-size="20" font-weight="700" fill="#0f172a">????? ???????</text>
  <rect x="224" y="64" width="500" height="36" rx="8" fill="#fff" stroke="#e2e8f0"/>
  <text x="240" y="87" font-family="Arial,sans-serif" font-size="12" fill="#94a3b8">?????, ????2, ??????...</text>
  <rect x="740" y="64" width="120" height="36" rx="8" fill="#1c50de"/>
  <text x="800" y="87" text-anchor="middle" font-family="Arial,sans-serif" font-size="12" font-weight="700" fill="#fff">????????</text>
  <rect x="224" y="120" width="716" height="88" rx="12" fill="#fff" stroke="#e2e8f0"/>
  <text x="240" y="148" font-family="Arial,sans-serif" font-size="14" font-weight="700" fill="#1e293b">???????? ???????????????</text>
  <text x="240" y="170" font-family="Arial,sans-serif" font-size="11" fill="#94a3b8">4,2 ??? ? · 44-?? · ?????? · ??????</text>
  <rect x="820" y="148" width="100" height="28" rx="8" fill="#1c50de"/>
  <text x="870" y="167" text-anchor="middle" font-family="Arial,sans-serif" font-size="11" font-weight="700" fill="#fff">? ??????</text>
  <rect x="224" y="220" width="716" height="88" rx="12" fill="#fff" stroke="#e2e8f0"/>
  <text x="240" y="248" font-family="Arial,sans-serif" font-size="14" font-weight="700" fill="#1e293b">?????? ??????? ?????????</text>
  <text x="240" y="270" font-family="Arial,sans-serif" font-size="11" fill="#94a3b8">1,1 ??? ? · ????????? · ??? · Seldon</text>
  <rect x="820" y="248" width="100" height="28" rx="8" fill="#f1f5f9" stroke="#e2e8f0"/>
  <text x="870" y="267" text-anchor="middle" font-family="Arial,sans-serif" font-size="11" font-weight="600" fill="#475569">????????</text>
</svg>
