<svg xmlns="http://www.w3.org/2000/svg" width="960" height="600" viewBox="0 0 960 600" fill="none">
  <rect width="960" height="600" fill="#f8fafc"/>
  <text x="48" y="56" font-family="Arial,sans-serif" font-size="20" font-weight="700" fill="#0f172a">????????? ? ?????????</text>
  <rect x="48" y="80" width="864" height="120" rx="14" fill="#fff" stroke="#e2e8f0"/>
  <rect x="72" y="104" width="48" height="48" rx="10" fill="#eef3ff"/>
  <text x="96" y="134" text-anchor="middle" font-family="Arial,sans-serif" font-size="18" font-weight="800" fill="#1c50de">K</text>
  <text x="140" y="124" font-family="Arial,sans-serif" font-size="15" font-weight="700" fill="#1e293b">??????.???????</text>
  <text x="140" y="146" font-family="Arial,sans-serif" font-size="11" fill="#94a3b8">API-????</text>
  <rect x="140" y="156" width="400" height="32" rx="6" fill="#f8fafc" stroke="#e2e8f0"/>
  <text x="152" y="176" font-family="Arial,sans-serif" font-size="11" fill="#64748b">••••••••••••••••••••</text>
  <rect x="560" y="156" width="100" height="32" rx="8" fill="#059669"/>
  <text x="610" y="176" text-anchor="middle" font-family="Arial,sans-serif" font-size="11" font-weight="700" fill="#fff">??????????</text>
  <rect x="48" y="220" width="864" height="120" rx="14" fill="#fff" stroke="#e2e8f0"/>
  <rect x="72" y="244" width="48" height="48" rx="10" fill="#eef3ff"/>
  <text x="96" y="274" text-anchor="middle" font-family="Arial,sans-serif" font-size="16" font-weight="800" fill="#1c50de">S</text>
  <text x="140" y="264" font-family="Arial,sans-serif" font-size="15" font-weight="700" fill="#1e293b">Seldon</text>
  <rect x="140" y="296" width="400" height="32" rx="6" fill="#f8fafc" stroke="#e2e8f0"/>
  <text x="152" y="316" font-family="Arial,sans-serif" font-size="11" fill="#94a3b8">???????? API-????</text>
  <rect x="560" y="296" width="100" height="32" rx="8" fill="#1c50de"/>
  <text x="610" y="316" text-anchor="middle" font-family="Arial,sans-serif" font-size="11" font-weight="700" fill="#fff">?????????</text>
</svg>
